{"title":"[JRR]Sword Art Online II - 10 [370p] [iphone] [ipod] [Jap].mp4","uid":10993041,"size":49003468,"categoryP":"video","categoryS":"other","magnet":"?xt=urn:btih:cbe2daa901e75dd97b55f0284db10e1951d98c16&amp;dn=%5BJRR%5DSword+Art+Online+II+-+10+%5B370p%5D+%5Biphone%5D+%5Bipod%5D+%5BJap%5D.mp4&amp;tr=udp%3A%2F%2Ftracker.openbittorrent.com%3A80&amp;tr=udp%3A%2F%2Fopen.demonii.com%3A1337&amp;tr=udp%3A%2F%2Ftracker.coppersurfer.tk%3A6969&amp;tr=udp%3A%2F%2Fexodus.desync.com%3A6969","seeders":0,"leechers":0,"uploader":"JRRtv","files":1,"time":1410028075,"description":"[center][b][size=300][color=orange]^_^ JRR STuDios ^_^[/color][/size]\n\n\n[size=150][color=red][u]Sword Art Online II - 10[/u][/color][/size]\n[/b]\n\n[b]General[/b] \nFormat : MPEG-4 \nFormat profile : Base Media \nCodec ID : isom \nFile size : 46.7 MiB \nDuration : 23mn 40s \nOverall bit rate mode : Variable \nOverall bit rate : 276 Kbps \n\n\n[b]Video[/b] \nID : 1 \nFormat : AVC \nFormat/Info : Advanced Video Codec \nFormat profile : &lt;a class=&quot;__cf_email__&quot; href=&quot;/cdn-cgi/l/email-protection&quot; data-cfemail=&quot;4b03222c230b0778657b&quot;&gt;[email&amp;#160;protected]&lt;/a&gt;&lt;script cf-hash='f9e31' type=&quot;text/javascript&quot;&gt;\n/* &lt;![CDATA[ */!function(){try{var t=&quot;currentScript&quot;in document?document.currentScript:function(){for(var t=document.getElementsByTagName(&quot;script&quot;),e=t.length;e--;)if(t[e].getAttribute(&quot;cf-hash&quot;))return t[e]}();if(t&amp;&amp;t.previousSibling){var e,r,n,i,c=t.previousSibling,a=c.getAttribute(&quot;data-cfemail&quot;);if(a){for(e=&quot;&quot;,r=parseInt(a.substr(0,2),16),n=2;a.length-n;n+=2)i=parseInt(a.substr(n,2),16)^r,e+=String.fromCharCode(i);e=document.createTextNode(e),c.parentNode.replaceChild(e,c)}}}catch(u){}}();/* ]]&gt; */&lt;/script&gt; \nFormat settings, CABAC : Yes \nFormat settings, ReFrames : 4 frames \nCodec ID : avc1 \nCodec ID/Info : Advanced Video Coding \nDuration : 23mn 40s \nBit rate : 176 Kbps \nMaximum bit rate : 1 113 Kbps \nWidth : 640 pixels \nHeight : 360 pixels \nDisplay aspect ratio : 16:9 \nFrame rate mode : Constant \nFrame rate : 23.976 fps \nColor space : YUV \nChroma subsampling : 4:2:0 \nBit depth : 8 bits \nScan type : Progressive \nBits/(Pixel*Frame) : 0.032 \nStream size : 29.8 MiB (64%) \n\n\n\n[b]Audio[/b] \nID : 2 \nFormat : AAC \nFormat/Info : Advanced Audio Codec \nFormat profile : LC \nCodec ID : 40 \nDuration : 23mn 40s \nBit rate mode : Variable \nBit rate : 96.0 Kbps \nMaximum bit rate : 106 Kbps \nChannel(s) : 2 channels \nChannel positions : Front: L R \nSampling rate : 44.1 KHz \nCompression mode : Lossy \nStream size : 16.3 MiB (35%) \n\n\n[b]Subtitle[/b]\nLanguage : Japanese \nType : HardSubbed ( Anivids )\n\n\n[/center]","torrent":{"xt":"urn:btih:cbe2daa901e75dd97b55f0284db10e1951d98c16","amp;dn":"%5BJRR%5DSword+Art+Online+II+-+10+%5B370p%5D+%5Biphone%5D+%5Bipod%5D+%5BJap%5D.mp4","amp;tr":["udp%3A%2F%2Ftracker.openbittorrent.com%3A80","udp%3A%2F%2Fopen.demonii.com%3A1337","udp%3A%2F%2Ftracker.coppersurfer.tk%3A6969","udp%3A%2F%2Fexodus.desync.com%3A6969"],"infoHash":"cbe2daa901e75dd97b55f0284db10e1951d98c16","infoHashBuffer":{"type":"Buffer","data":[203,226,218,169,1,231,93,217,123,85,240,40,77,177,14,25,81,217,140,22]},"announce":[],"urlList":[]}}